<svg id="Layer_1" data-name="Layer 1" xmlns="http://www.w3.org/2000/svg" viewBox="0 0 100 100"><defs><style>.cls-1{fill:#f9ce59;}</style></defs><path class="cls-1" d="M62.3,9.27Q76,5.76,89.76,2.5c0,1,0,1.54,0,2.57-2.27.51-3.41.77-5.67,1.3q.59,44.15,1.16,88.3l5.72,0,0,2.57-31.69.11,0-2.36L65,94.87q-.47-39.48-.92-79l-.41.1q-7,40.74-14.65,81.35l-13,0c-5.91-23.28-12-46.52-18.47-69.65l-.41.12.18,67.56,5.71-.07c0,.84,0,1.25,0,2.09L9,97.5v-2l5.71-.08Q14.61,60.23,14.54,25L9,26.72v-2q13.7-4.3,27.46-8.36,7.29,29.22,14.19,58.54Q56.68,42.14,62.3,9.27Z"/></svg>