<svg id="Layer_1" data-name="Layer 1" xmlns="http://www.w3.org/2000/svg" viewBox="0 0 100 100"><defs><style>.cls-1{fill:#1a1a1a;}.cls-2{fill:#ffcf29;}</style></defs><rect class="cls-1" width="100" height="100"/><path class="cls-2" d="M139.4,66.85a10,10,0,0,0-.62-2l-.1-.23-.12-.23c-.08-.16-.15-.31-.23-.44l-.12-.2-.07-.12-.08-.1a3,3,0,0,0-.3-.4A4.67,4.67,0,0,0,136.25,62a4.72,4.72,0,0,0-1.7-.47,5,5,0,0,0-1.61.16l-.36.12-.35.16a1.51,1.51,0,0,0-.31.16l-.14.08,0,0,0,0v0l-.08.05a2.12,2.12,0,0,0-.5.49,2.57,2.57,0,0,0-.31.59,2.35,2.35,0,0,0,.06,1.67l.06.11.06.1a.53.53,0,0,0,.06.1l.07.1a1.09,1.09,0,0,0,.75.39h.18a.47.47,0,0,0,.17,0l.16,0,.12-.07a.53.53,0,0,0,.29-.38.54.54,0,0,0,0-.3l0-.08s0,0,0,0a.05.05,0,0,0,0,0l0,.08a.49.49,0,0,1,0,.25.43.43,0,0,1-.26.29l-.13.05a.61.61,0,0,1-.13,0h-.3a.93.93,0,0,1-.58-.36l-.06-.08a.93.93,0,0,0-.05-.1l0-.1,0-.1a2,2,0,0,1-.11-.44,2.05,2.05,0,0,1,.15-1,2.08,2.08,0,0,1,.29-.46,1.91,1.91,0,0,1,.43-.37l.06,0h0l0,0,.15-.08.3-.14.3-.11.33-.08a4.12,4.12,0,0,1,1.41-.07,4,4,0,0,1,2.64,1.53,4.15,4.15,0,0,1,.24.34l0,.09.05.09.11.21c.08.14.14.27.2.4l.09.21.08.21a8.49,8.49,0,0,1,.48,1.83,9.12,9.12,0,0,1-.29,4,7.49,7.49,0,0,1-2.32,3.59,6.59,6.59,0,0,1-1.94,1.13,8.13,8.13,0,0,1-2.28.49l-.3,0h-.94l-.61,0-.31,0-.31,0-.63-.08-.64-.12c-.21,0-.42-.08-.63-.13l-.64-.14a35.44,35.44,0,0,1-5.1-1.76c-1.71-.72-3.41-1.55-5.11-2.44s-3.4-1.82-5.12-2.79-3.45-1.94-5.22-2.88c-.89-.46-1.79-.91-2.72-1.33-.46-.21-.94-.41-1.42-.59l-.36-.13-.1,0-.09,0-.18-.06c-.24-.08-.47-.16-.73-.23a18.07,18.07,0,0,0-3-.62,11.42,11.42,0,0,0-1.55-.09,10,10,0,0,0-1.54.13,7.14,7.14,0,0,0-2.34.8,13.77,13.77,0,0,0-2.91-1.86,10,10,0,0,0-4.4-1,7.77,7.77,0,0,0-4,1.09,6.65,6.65,0,0,0-1.49,1.17,6.83,6.83,0,0,0-1,1.41,6,6,0,0,0-.78,3,5.38,5.38,0,0,0,.16,1.3,5.47,5.47,0,0,0,.36,1.08,6.37,6.37,0,0,0,.93,1.51,8.88,8.88,0,0,0,.75.79l.28.25a.06.06,0,0,0,.08,0,.06.06,0,0,0,0-.09h0L79.75,72a6.91,6.91,0,0,1-.63-.85,6.16,6.16,0,0,1-.74-1.5,5.86,5.86,0,0,1-.25-1,5.41,5.41,0,0,1,.79-3.73,6.6,6.6,0,0,1,1-1.18,7,7,0,0,1,1.33-1,7.16,7.16,0,0,1,3.47-.86,9.43,9.43,0,0,1,3.93.92,13.92,13.92,0,0,1,2.47,1.46,6,6,0,0,0-1.62,2.08,7.24,7.24,0,0,0-.63,3,8.22,8.22,0,0,0,.54,2.92,7,7,0,0,0,1.54,2.49,5.6,5.6,0,0,0,2.44,1.53l.17,0,.18,0,.17,0,.18,0a3.6,3.6,0,0,0,.73,0A3.22,3.22,0,0,0,96.17,76a3.08,3.08,0,0,0,1-1,3.65,3.65,0,0,0,.5-1.33,5.81,5.81,0,0,0-.27-2.75,11.43,11.43,0,0,0-1.17-2.41,22.78,22.78,0,0,0-3.23-4l-.53-.47a6.44,6.44,0,0,1,1.93-.53,8.59,8.59,0,0,1,1.44-.06,11.69,11.69,0,0,1,1.44.14,16.28,16.28,0,0,1,2.83.71c.11,0,.23.07.34.12l.36.13.17.06.09,0,.08,0,.34.13c.44.19.89.4,1.33.62.88.44,1.74.92,2.6,1.41,1.72,1,3.42,2,5.12,3s3.4,2,5.11,2.9,3.45,1.77,5.2,2.53a35.1,35.1,0,0,0,5.35,1.81l.68.15.34.07.34.06.69.11.68.07.35,0,.35,0,.7,0,.65,0h.24c.07,0,.05,0,.07,0h0l.35,0a9.24,9.24,0,0,0,2.66-.64,8,8,0,0,0,2.27-1.4,8.72,8.72,0,0,0,2.58-4.25A10.29,10.29,0,0,0,139.4,66.85ZM94.11,67l.41.45c.14.16.28.31.41.48s.27.32.4.49.26.33.38.5A10.16,10.16,0,0,1,97,71.09a6,6,0,0,1,.35,1.24,4.23,4.23,0,0,1,0,1.28,3.34,3.34,0,0,1-.42,1.22,2.56,2.56,0,0,1-.91.91,2.74,2.74,0,0,1-1.25.39,3,3,0,0,1-.67,0l-.16,0-.17,0-.17,0L93.44,76a5.32,5.32,0,0,1-2.3-1.47,7.05,7.05,0,0,1-1.44-2.4,8,8,0,0,1-.44-2.79,6.46,6.46,0,0,1,.66-2.74,5.36,5.36,0,0,1,1.66-1.94c.27.21.54.43.8.66A21.13,21.13,0,0,1,94.11,67Z"/><path class="cls-2" d="M-39.23,71.35a8.72,8.72,0,0,0,2.58,4.25A8,8,0,0,0-34.38,77a9.24,9.24,0,0,0,2.66.64l.35,0h0s0,0,.07,0H-31l.65,0,.7,0,.35,0,.35,0,.68-.07.69-.11.34-.06.34-.07.68-.15a35.1,35.1,0,0,0,5.35-1.81c1.75-.76,3.48-1.61,5.2-2.53s3.41-1.9,5.11-2.9,3.4-2,5.12-3c.86-.49,1.72-1,2.6-1.41.44-.22.89-.43,1.33-.62l.34-.13.08,0,.09,0,.17-.06.36-.13c.11,0,.23-.08.34-.12a16.28,16.28,0,0,1,2.83-.71,11.69,11.69,0,0,1,1.44-.14,8.59,8.59,0,0,1,1.44.06,6.44,6.44,0,0,1,1.93.53L7,64.56a22.78,22.78,0,0,0-3.23,4,11.43,11.43,0,0,0-1.17,2.41,5.81,5.81,0,0,0-.27,2.75A3.65,3.65,0,0,0,2.79,75a3.08,3.08,0,0,0,1,1,3.22,3.22,0,0,0,1.38.42,3.6,3.6,0,0,0,.73,0l.18,0,.17,0,.18,0,.17,0A5.65,5.65,0,0,0,9.08,74.7a7,7,0,0,0,1.54-2.49,8.22,8.22,0,0,0,.54-2.92,7.24,7.24,0,0,0-.63-3,6,6,0,0,0-1.62-2.08,13.92,13.92,0,0,1,2.47-1.46,9.43,9.43,0,0,1,3.93-.92,7.16,7.16,0,0,1,3.47.86,7,7,0,0,1,1.33,1,6.6,6.6,0,0,1,1,1.18,5.41,5.41,0,0,1,.79,3.73,5.86,5.86,0,0,1-.25,1,6.16,6.16,0,0,1-.74,1.5,6.91,6.91,0,0,1-.63.85c-.15.18-.24.27-.24.27h0a.06.06,0,0,0,0,.09.06.06,0,0,0,.08,0l.28-.25a8.88,8.88,0,0,0,.75-.79,6.37,6.37,0,0,0,.93-1.51,5.47,5.47,0,0,0,.36-1.08,5.38,5.38,0,0,0,.16-1.3,6,6,0,0,0-.78-3,6.83,6.83,0,0,0-1-1.41,6.65,6.65,0,0,0-1.49-1.17,7.77,7.77,0,0,0-4-1.09,10,10,0,0,0-4.4,1A13.77,13.77,0,0,0,8,63.65a7.14,7.14,0,0,0-2.34-.8,10,10,0,0,0-1.54-.13,11.42,11.42,0,0,0-1.55.09,18.07,18.07,0,0,0-3,.62c-.26.07-.49.15-.73.23l-.18.06-.09,0-.1,0-.36.13c-.48.18-1,.38-1.42.59-.93.42-1.83.87-2.72,1.33-1.77.94-3.51,1.92-5.22,2.88s-3.43,1.9-5.12,2.79-3.4,1.72-5.11,2.44a35.44,35.44,0,0,1-5.1,1.76l-.64.14c-.21,0-.42.1-.63.13l-.64.12-.63.08-.31,0-.31,0-.61,0h-.94l-.3,0a8.13,8.13,0,0,1-2.28-.49,6.59,6.59,0,0,1-1.94-1.13A7.49,7.49,0,0,1-38.14,71a9.12,9.12,0,0,1-.29-4,8.49,8.49,0,0,1,.48-1.83l.08-.21.09-.21c.06-.13.12-.26.2-.4l.11-.21,0-.09.05-.09a4.15,4.15,0,0,1,.24-.34,4,4,0,0,1,2.64-1.53,4.12,4.12,0,0,1,1.41.07l.33.08.3.11.3.14.15.08,0,0h0l.06,0a1.91,1.91,0,0,1,.43.37,2.08,2.08,0,0,1,.29.46,2.05,2.05,0,0,1,.15,1,2,2,0,0,1-.11.44l0,.1-.05.1-.05.1-.06.08a.93.93,0,0,1-.58.36h-.3a.61.61,0,0,1-.13,0l-.13-.05a.43.43,0,0,1-.26-.29.49.49,0,0,1,0-.25l0-.08a.05.05,0,0,0,0,0s0,0,0,0l0,.08a.54.54,0,0,0,0,.3.53.53,0,0,0,.29.38l.12.07.16,0a.47.47,0,0,0,.17,0h.18a1.09,1.09,0,0,0,.75-.39l.07-.1a.53.53,0,0,0,.06-.1l.06-.1.06-.11a2.15,2.15,0,0,0,.15-.51,2.13,2.13,0,0,0-.09-1.16,2.57,2.57,0,0,0-.31-.59,2.12,2.12,0,0,0-.5-.49l-.08-.05v0l0,0,0,0-.14-.08a1.51,1.51,0,0,0-.31-.16l-.35-.16-.36-.12a5,5,0,0,0-1.61-.16,4.72,4.72,0,0,0-1.7.47,4.67,4.67,0,0,0-1.51,1.17,3,3,0,0,0-.3.4l-.08.1-.07.12-.12.2c-.08.13-.15.28-.23.44l-.12.23-.1.23a10,10,0,0,0-.62,2A10.29,10.29,0,0,0-39.23,71.35ZM7.62,65.28c.26-.23.53-.45.8-.66a5.36,5.36,0,0,1,1.66,1.94,6.46,6.46,0,0,1,.66,2.74,8,8,0,0,1-.44,2.79,7.05,7.05,0,0,1-1.44,2.4A5.32,5.32,0,0,1,6.56,76L6.4,76l-.17,0-.17,0-.16,0a3,3,0,0,1-.67,0A2.74,2.74,0,0,1,4,75.74a2.56,2.56,0,0,1-.91-.91,3.34,3.34,0,0,1-.42-1.22,4.23,4.23,0,0,1,0-1.28A6,6,0,0,1,3,71.09a10.16,10.16,0,0,1,1.25-2.2c.12-.17.25-.34.38-.5s.27-.33.4-.49.27-.32.41-.48L5.89,67A21.13,21.13,0,0,1,7.62,65.28Z"/><path class="cls-2" d="M22.14,33.51A43.37,43.37,0,0,0,6.33,58.34H7.4A42.36,42.36,0,0,1,22.14,34.87Z"/><path class="cls-2" d="M77.74,35.64v1.44A42.32,42.32,0,0,1,89.91,58.34H91A43.4,43.4,0,0,0,77.74,35.64Z"/><path class="cls-2" d="M75.39,26.55A2.62,2.62,0,0,1,77,24.9a13.43,13.43,0,0,1,3.94-.58h.22v-2l-.25,0c-2.37.14-5.63.22-9.68.22H67.42L51.16,66.21,34.53,22.31l-.17,0c-1.65.14-3.84.22-6.51.22-3,0-5.41-.08-7.07-.22l-.25,0v2h.22a13.43,13.43,0,0,1,3.94.58,2.62,2.62,0,0,1,1.58,1.65,13.49,13.49,0,0,1,.45,4.1V67.77a15.37,15.37,0,0,1-.47,4.37,3.27,3.27,0,0,1-1.66,2,9.73,9.73,0,0,1-3.84.74h-.22v2l.25,0c1.68-.15,4.06-.22,7.07-.22,3.36,0,6,.07,7.78.22l.25,0v-2h-.22a12.26,12.26,0,0,1-4.37-.75,3.27,3.27,0,0,1-1.84-2,14,14,0,0,1-.51-4.36V28.69L47.8,77.26h1.55l18-48.3v39.6a13.3,13.3,0,0,1-.46,4.09,2.61,2.61,0,0,1-1.56,1.66,13.47,13.47,0,0,1-3.91.58h-.23v2l.25,0c2.13-.15,5.41-.22,9.76-.22,4,0,7.31.07,9.68.22l.25,0v-2h-.22A13.78,13.78,0,0,1,77,74.31a2.61,2.61,0,0,1-1.58-1.66,13.37,13.37,0,0,1-.45-4.09V30.65A13.49,13.49,0,0,1,75.39,26.55Z"/></svg>